Coordinates
version=1
nRows=38
nColumns=12
inDegrees=yes

Units are S.I. units (second, meters, Newtons, ...)
Angles are in degrees

endheader
time	SC_y	SC_z	SC_x	AC_y	AC_z	AC_x	GH_y	GH_z	GH_yy	EL_x	PS_y
       0.0              -44.26          4.977          40.78          46.08         -12.43         -2.876         -119.9          38.33          71.39          10.86          17.78
  0.007373              -44.26          4.979          40.78          46.08         -12.43         -2.877         -119.9          38.33           71.4          10.87          17.79
   0.01475              -44.25          4.981          40.78          46.08         -12.43         -2.877         -119.9          38.33          71.42          10.88           17.8
   0.02212              -44.25          4.983          40.78          46.08         -12.43         -2.878         -119.8          38.33          71.43           10.9          17.82
   0.02949              -44.25          4.985          40.78          46.09         -12.43         -2.879         -119.8          38.33          71.45          10.91          17.83
   0.03686              -44.24          4.988          40.78          46.09         -12.43         -2.879         -119.8          38.33          71.47          10.93          17.84
   0.04424              -44.24           4.99          40.78          46.09         -12.43          -2.88         -119.7          38.32          71.49          10.95          17.85
   0.05161              -44.24          4.993          40.78          46.09         -12.43         -2.881         -119.7          38.32          71.51          10.96          17.87
   0.05898              -44.23          4.996          40.78          46.09         -12.43         -2.882         -119.6          38.32          71.53          10.98          17.88
   0.06635              -44.23          4.999          40.78           46.1         -12.43         -2.883         -119.6          38.32          71.55           11.0           17.9
   0.07373              -44.22          5.002          40.77           46.1         -12.43         -2.884         -119.5          38.32          71.58          11.03          17.92
    0.0811              -44.22          5.006          40.77           46.1         -12.43         -2.885         -119.5          38.32          71.61          11.05          17.94
   0.08847              -44.21           5.01          40.77          46.11         -12.43         -2.886         -119.4          38.32          71.64          11.08          17.96
   0.09584              -44.21          5.014          40.77          46.11         -12.43         -2.887         -119.4          38.31          71.67           11.1          17.98
    0.1032               -44.2          5.019          40.77          46.11         -12.43         -2.889         -119.3          38.31           71.7          11.13          18.01
    0.1106              -44.19          5.024          40.77          46.12         -12.43          -2.89         -119.2          38.31          71.74          11.17          18.03
     0.118              -44.19          5.029          40.77          46.12         -12.43         -2.892         -119.2          38.31          71.78           11.2          18.06
    0.1253              -44.18          5.035          40.76          46.13         -12.43         -2.894         -119.1           38.3          71.83          11.24          18.09
    0.1327              -44.17          5.041          40.76          46.13         -12.43         -2.895         -119.0           38.3          71.88          11.28          18.13
    0.1401              -44.16          5.048          40.76          46.14         -12.43         -2.898         -118.9           38.3          71.93          11.33          18.17
    0.1475              -44.15          5.056          40.76          46.14         -12.43           -2.9         -118.8           38.3          71.99          11.38          18.21
    0.1548              -44.14          5.065          40.75          46.15         -12.43         -2.902         -118.7          38.29          72.05          11.44          18.25
    0.1622              -44.13          5.074          40.75          46.16         -12.43         -2.905         -118.5          38.29          72.12           11.5           18.3
    0.1696              -44.11          5.084          40.75          46.17         -12.43         -2.908         -118.4          38.28           72.2          11.57          18.36
    0.1769               -44.1          5.096          40.75          46.18         -12.43         -2.912         -118.2          38.28          72.29          11.64          18.42
    0.1843              -44.08          5.109          40.74          46.19         -12.43         -2.915         -118.0          38.27          72.39          11.73          18.49
    0.1917              -44.06          5.123          40.74           46.2         -12.43          -2.92         -117.8          38.27           72.5          11.82          18.57
    0.1991              -44.03          5.139          40.73          46.22         -12.43         -2.925         -117.6          38.26          72.62          11.93          18.65
    0.2064              -44.01          5.158          40.73          46.23         -12.43          -2.93         -117.3          38.25          72.76          12.05          18.75
    0.2138              -43.98          5.179          40.72          46.25         -12.43         -2.936         -117.0          38.24          72.92          12.18          18.87
    0.2212              -43.95          5.202          40.71          46.27         -12.43         -2.943         -116.7          38.23           73.1          12.34          18.99
    0.2286              -43.91           5.23           40.7          46.29         -12.43         -2.951         -116.3          38.22          73.31          12.52          19.14
    0.2359              -43.87          5.261          40.69          46.32         -12.43         -2.961         -115.8           38.2          73.55          12.73          19.31
    0.2433              -43.82          5.298          40.68          46.35         -12.43         -2.972         -115.3          38.19          73.83          12.97           19.5
    0.2507              -43.76          5.341          40.67          46.38         -12.43         -2.984         -114.7          38.17          74.15          13.25          19.73
     0.258              -43.69          5.391          40.65          46.43         -12.43         -2.999         -113.9          38.15          74.54          13.58          20.01
    0.2654               -43.6          5.451          40.64          46.48         -12.43         -3.017         -113.1          38.12          74.99          13.98          20.33
    0.2728              -43.51          5.523          40.61          46.54         -12.43         -3.038         -112.0          38.09          75.54          14.45          20.71
